<svg height='100px' width='100px'  fill="#0080FF" xmlns="http://www.w3.org/2000/svg" xmlns:xlink="http://www.w3.org/1999/xlink" version="1.1" x="0px" y="0px" viewBox="0 0 39 39" enable-background="new 0 0 39 39" xml:space="preserve"><path d="M25.962,6.983l-0.041,1.179c-0.001,0.033,0.017,0.064,0.046,0.079c0.028,0.016,0.064,0.013,0.091-0.006l0.961-0.685  l1.108,0.403c0.013,0.006,0.027,0.007,0.041,0.005c0.018-0.002,0.034-0.011,0.048-0.023c0.023-0.022,0.033-0.057,0.023-0.088  l-0.355-1.125l0.727-0.93c0.02-0.026,0.023-0.061,0.01-0.091c-0.015-0.03-0.045-0.048-0.077-0.049l-1.18-0.01l-0.66-0.978  c-0.036-0.054-0.132-0.042-0.153,0.021l-0.375,1.118l-1.133,0.326c-0.032,0.009-0.056,0.036-0.062,0.068s0.007,0.065,0.033,0.085  L25.962,6.983z"></path><path d="M10.976,32.72l-0.281-1.146c-0.008-0.032-0.033-0.057-0.066-0.064c-0.031-0.007-0.064,0.005-0.085,0.03l-0.738,0.92  l-1.177-0.086c-0.065-0.005-0.114,0.078-0.078,0.133l0.646,0.987l-0.445,1.092c-0.013,0.03-0.007,0.065,0.015,0.09  c0.022,0.024,0.056,0.035,0.088,0.026l1.138-0.31l0.9,0.761c0.025,0.021,0.061,0.027,0.091,0.014  c0.03-0.013,0.051-0.043,0.052-0.075l0.057-1.178l1.002-0.622c0.013-0.007,0.022-0.018,0.029-0.029  c0.01-0.016,0.014-0.034,0.012-0.053c-0.003-0.032-0.024-0.061-0.056-0.072L10.976,32.72z"></path><path d="M30.919,9.696l-0.033,0.976c-0.002,0.027,0.014,0.053,0.037,0.065c0.023,0.013,0.054,0.011,0.075-0.005l0.795-0.567  l0.917,0.333c0.012,0.005,0.023,0.005,0.035,0.004c0.014-0.002,0.028-0.009,0.039-0.02c0.02-0.019,0.027-0.047,0.02-0.073  L32.51,9.479l0.601-0.77c0.018-0.021,0.021-0.05,0.008-0.075c-0.012-0.024-0.036-0.04-0.063-0.04l-0.976-0.009l-0.547-0.81  c-0.03-0.045-0.109-0.034-0.127,0.018l-0.31,0.926l-0.938,0.27c-0.026,0.007-0.046,0.029-0.051,0.056  c-0.005,0.027,0.006,0.054,0.027,0.07L30.919,9.696z"></path><path d="M32.3,5.334L32.274,6.09c-0.001,0.021,0.01,0.041,0.029,0.051c0.018,0.01,0.041,0.008,0.058-0.004l0.615-0.438l0.711,0.258  c0.009,0.004,0.018,0.004,0.026,0.003c0.012-0.001,0.022-0.007,0.031-0.015c0.015-0.015,0.021-0.037,0.014-0.057l-0.227-0.721  l0.465-0.596c0.013-0.017,0.016-0.04,0.006-0.059c-0.009-0.019-0.028-0.031-0.049-0.031l-0.756-0.007l-0.424-0.627  c-0.023-0.034-0.084-0.026-0.098,0.014l-0.24,0.717L31.71,4.788c-0.021,0.005-0.035,0.022-0.039,0.043s0.004,0.042,0.021,0.055  L32.3,5.334z"></path><path d="M6.346,17.229l0.271,0.842c0.008,0.023,0.027,0.041,0.053,0.044c0.023,0.004,0.049-0.007,0.063-0.027l0.503-0.726  l0.884,0.003c0.011,0,0.021-0.002,0.03-0.007c0.012-0.006,0.021-0.016,0.028-0.028c0.011-0.022,0.008-0.049-0.007-0.068  l-0.535-0.703l0.276-0.84c0.008-0.023,0.001-0.049-0.017-0.066c-0.018-0.017-0.044-0.023-0.066-0.015l-0.835,0.292L6.28,15.406  c-0.039-0.028-0.104,0.005-0.103,0.054l0.02,0.884L5.48,16.86c-0.021,0.014-0.03,0.039-0.026,0.063  c0.004,0.024,0.021,0.045,0.045,0.052L6.346,17.229z"></path><path d="M34.415,25.564l-0.217-0.856c-0.013-0.047-0.084-0.063-0.114-0.024l-0.548,0.694l-0.881-0.058  c-0.025-0.002-0.049,0.011-0.061,0.032c-0.013,0.021-0.012,0.047,0.002,0.068l0.49,0.735l-0.327,0.821  c-0.01,0.022-0.005,0.049,0.013,0.067c0.016,0.019,0.041,0.025,0.065,0.019l0.851-0.239l0.68,0.565  c0.008,0.007,0.018,0.011,0.027,0.014c0.014,0.003,0.027,0.001,0.04-0.005c0.022-0.01,0.037-0.031,0.038-0.057l0.035-0.883  l0.748-0.472c0.021-0.013,0.032-0.037,0.029-0.062c-0.002-0.024-0.019-0.045-0.041-0.054L34.415,25.564z"></path><path d="M37.589,25.083c0.014,0.003,0.027,0.002,0.04-0.004c0.022-0.01,0.037-0.032,0.038-0.057l0.035-0.883l0.748-0.472  c0.021-0.013,0.032-0.037,0.029-0.062c-0.002-0.024-0.019-0.046-0.041-0.054l-0.83-0.306l-0.217-0.856  c-0.013-0.048-0.084-0.063-0.114-0.024l-0.548,0.694l-0.881-0.058c-0.025-0.002-0.049,0.011-0.061,0.032  c-0.013,0.021-0.012,0.047,0.002,0.068l0.49,0.735l-0.327,0.821c-0.009,0.023-0.005,0.049,0.013,0.067  c0.016,0.019,0.042,0.026,0.065,0.019l0.851-0.239l0.68,0.564C37.569,25.077,37.579,25.081,37.589,25.083z"></path><path d="M38.722,27.343l-0.522-0.192l-0.137-0.54c-0.008-0.029-0.053-0.039-0.071-0.015l-0.346,0.437l-0.555-0.036  c-0.016-0.001-0.03,0.007-0.039,0.02c-0.007,0.013-0.007,0.03,0.002,0.043l0.309,0.463l-0.206,0.517  c-0.006,0.015-0.003,0.031,0.008,0.042c0.011,0.012,0.026,0.016,0.041,0.012l0.536-0.151l0.428,0.356  c0.006,0.004,0.012,0.007,0.018,0.008c0.009,0.002,0.018,0.001,0.025-0.002c0.014-0.006,0.023-0.02,0.024-0.036l0.022-0.556  l0.471-0.297c0.013-0.009,0.021-0.023,0.018-0.039C38.746,27.362,38.736,27.349,38.722,27.343z"></path><path d="M3.194,19.395c0.013,0,0.023-0.003,0.034-0.008c0.013-0.007,0.024-0.018,0.03-0.031c0.013-0.024,0.01-0.054-0.007-0.075  l-0.591-0.777l0.305-0.927c0.009-0.026,0.002-0.055-0.019-0.073c-0.019-0.02-0.048-0.026-0.073-0.017l-0.922,0.322l-0.787-0.577  C1.121,17.2,1.05,17.236,1.052,17.291l0.021,0.977l-0.792,0.571c-0.022,0.016-0.033,0.043-0.029,0.07  c0.005,0.026,0.024,0.049,0.05,0.057l0.936,0.281l0.299,0.929c0.008,0.026,0.03,0.045,0.058,0.049  c0.026,0.005,0.054-0.008,0.069-0.03l0.556-0.802L3.194,19.395z"></path><path d="M2.567,13.983l0.231,0.72c0.007,0.02,0.024,0.035,0.045,0.037c0.021,0.004,0.042-0.005,0.054-0.022l0.431-0.622l0.756,0.002  c0.009,0,0.018-0.002,0.025-0.006c0.011-0.005,0.019-0.014,0.024-0.024c0.009-0.019,0.007-0.042-0.006-0.059L3.67,13.408  l0.236-0.718c0.007-0.021,0.001-0.042-0.014-0.057s-0.038-0.02-0.058-0.014l-0.713,0.25l-0.61-0.446  c-0.034-0.024-0.089,0.004-0.088,0.046l0.017,0.756l-0.613,0.442c-0.017,0.012-0.025,0.033-0.022,0.054  c0.004,0.021,0.019,0.038,0.039,0.044L2.567,13.983z"></path><path d="M21.39,27.368c4.604-1.233,8.801-2.912,11.82-4.726c3.321-1.995,4.84-3.937,4.391-5.613c-0.469-1.747-2.913-2.67-7.069-2.67  c-0.35,0-0.714,0.011-1.081,0.024c0.362,0.467,0.691,0.96,0.983,1.478c0.032,0,0.066-0.002,0.098-0.002  c3.84,0,5.428,0.839,5.62,1.559c0.182,0.679-0.682,2.117-3.714,3.939c-2.903,1.745-6.964,3.365-11.436,4.563  c-4.259,1.141-8.433,1.77-11.751,1.77c-3.84,0-5.427-0.839-5.619-1.558c-0.182-0.679,0.682-2.118,3.714-3.939  c0.146-0.087,0.308-0.173,0.459-0.261c-0.003-0.052-0.01-0.1-0.01-0.157c0-0.549,0.04-1.088,0.111-1.617  c-0.464,0.247-0.913,0.496-1.333,0.749c-3.321,1.995-4.84,3.937-4.391,5.613c0.469,1.747,2.912,2.67,7.068,2.67  C12.697,29.189,17.008,28.542,21.39,27.368z"></path><path d="M20.73,24.905c3.892-1.043,7.452-2.408,10.179-3.888c-0.39-5.747-5.172-10.289-11.018-10.289  c-6.101,0-11.047,4.945-11.047,11.046c0,1.74,0.404,3.385,1.12,4.849C13.072,26.542,16.855,25.943,20.73,24.905z"></path><path d="M12.595,30.063c1.945,1.715,4.499,2.757,7.297,2.757c4.865,0,8.993-3.147,10.467-7.516c-2.558,1.17-5.531,2.23-8.696,3.078  C18.513,29.226,15.399,29.796,12.595,30.063z"></path></svg>