<?xml version="1.0" encoding="UTF-8" standalone="no"?>
<!-- Created with Inkscape (http://www.inkscape.org/) -->

<svg
   xmlns:dc="http://purl.org/dc/elements/1.1/"
   xmlns:cc="http://creativecommons.org/ns#"
   xmlns:rdf="http://www.w3.org/1999/02/22-rdf-syntax-ns#"
   xmlns:svg="http://www.w3.org/2000/svg"
   xmlns="http://www.w3.org/2000/svg"
   xmlns:sodipodi="http://sodipodi.sourceforge.net/DTD/sodipodi-0.dtd"
   xmlns:inkscape="http://www.inkscape.org/namespaces/inkscape"
   width="210mm"
   height="297mm"
   viewBox="0 0 210 297"
   version="1.1"
   id="svg8"
   inkscape:version="0.92.3 (2405546, 2018-03-11)"
   sodipodi:docname="logov2.svg">
  <defs
     id="defs2" />
  <sodipodi:namedview
     id="base"
     pagecolor="#ffffff"
     bordercolor="#666666"
     borderopacity="1.0"
     inkscape:pageopacity="0.0"
     inkscape:pageshadow="2"
     inkscape:zoom="2.8"
     inkscape:cx="125.76074"
     inkscape:cy="752.47985"
     inkscape:document-units="mm"
     inkscape:current-layer="layer1"
     showgrid="false"
     inkscape:window-width="3440"
     inkscape:window-height="1377"
     inkscape:window-x="-8"
     inkscape:window-y="-8"
     inkscape:window-maximized="1" />
  <metadata
     id="metadata5">
    <rdf:RDF>
      <cc:Work
         rdf:about="">
        <dc:format>image/svg+xml</dc:format>
        <dc:type
           rdf:resource="http://purl.org/dc/dcmitype/StillImage" />
        <dc:title></dc:title>
      </cc:Work>
    </rdf:RDF>
  </metadata>
  <g
     inkscape:label="Layer 1"
     inkscape:groupmode="layer"
     id="layer1">
    <g
       id="g881"
       inkscape:export-xdpi="431.57999"
       inkscape:export-ydpi="431.57999">
      <g
         transform="matrix(0.6784188,0,0,0.6784188,16.185076,67.766585)"
         id="g862"
         style="fill:#0080ff">
        <path
           inkscape:connector-curvature="0"
           d="m 25.962,6.983 -0.041,1.179 c -10e-4,0.033 0.017,0.064 0.046,0.079 0.028,0.016 0.064,0.013 0.091,-0.006 l 0.961,-0.685 1.108,0.403 c 0.013,0.006 0.027,0.007 0.041,0.005 0.018,-0.002 0.034,-0.011 0.048,-0.023 0.023,-0.022 0.033,-0.057 0.023,-0.088 l -0.355,-1.125 0.727,-0.93 c 0.02,-0.026 0.023,-0.061 0.01,-0.091 -0.015,-0.03 -0.045,-0.048 -0.077,-0.049 l -1.18,-0.01 -0.66,-0.978 C 26.668,4.61 26.572,4.622 26.551,4.685 l -0.375,1.118 -1.133,0.326 c -0.032,0.009 -0.056,0.036 -0.062,0.068 -0.006,0.032 0.007,0.065 0.033,0.085 z"
           id="path815" />
        <path
           inkscape:connector-curvature="0"
           d="m 10.976,32.72 -0.281,-1.146 c -0.008,-0.032 -0.033,-0.057 -0.066,-0.064 -0.031,-0.007 -0.064,0.005 -0.085,0.03 L 9.806,32.46 8.629,32.374 C 8.564,32.369 8.515,32.452 8.551,32.507 l 0.646,0.987 -0.445,1.092 c -0.013,0.03 -0.007,0.065 0.015,0.09 0.022,0.024 0.056,0.035 0.088,0.026 l 1.138,-0.31 0.9,0.761 c 0.025,0.021 0.061,0.027 0.091,0.014 0.03,-0.013 0.051,-0.043 0.052,-0.075 l 0.057,-1.178 1.002,-0.622 c 0.013,-0.007 0.022,-0.018 0.029,-0.029 0.01,-0.016 0.014,-0.034 0.012,-0.053 -0.003,-0.032 -0.024,-0.061 -0.056,-0.072 z"
           id="path817" />
        <path
           inkscape:connector-curvature="0"
           d="m 30.919,9.696 -0.033,0.976 c -0.002,0.027 0.014,0.053 0.037,0.065 0.023,0.013 0.054,0.011 0.075,-0.005 l 0.795,-0.567 0.917,0.333 c 0.012,0.005 0.023,0.005 0.035,0.004 0.014,-0.002 0.028,-0.009 0.039,-0.02 0.02,-0.019 0.027,-0.047 0.02,-0.073 L 32.51,9.479 33.111,8.709 C 33.129,8.688 33.132,8.659 33.119,8.634 33.107,8.61 33.083,8.594 33.056,8.594 L 32.08,8.585 31.533,7.775 C 31.503,7.73 31.424,7.741 31.406,7.793 l -0.31,0.926 -0.938,0.27 c -0.026,0.007 -0.046,0.029 -0.051,0.056 -0.005,0.027 0.006,0.054 0.027,0.07 z"
           id="path819" />
        <path
           inkscape:connector-curvature="0"
           d="M 32.3,5.334 32.274,6.09 c -10e-4,0.021 0.01,0.041 0.029,0.051 0.018,0.01 0.041,0.008 0.058,-0.004 l 0.615,-0.438 0.711,0.258 c 0.009,0.004 0.018,0.004 0.026,0.003 0.012,-0.001 0.022,-0.007 0.031,-0.015 0.015,-0.015 0.021,-0.037 0.014,-0.057 L 33.531,5.167 33.996,4.571 C 34.009,4.554 34.012,4.531 34.002,4.512 33.993,4.493 33.974,4.481 33.953,4.481 L 33.197,4.474 32.773,3.847 C 32.75,3.813 32.689,3.821 32.675,3.861 l -0.24,0.717 -0.725,0.21 c -0.021,0.005 -0.035,0.022 -0.039,0.043 -0.004,0.021 0.004,0.042 0.021,0.055 z"
           id="path821" />
        <path
           inkscape:connector-curvature="0"
           d="m 6.346,17.229 0.271,0.842 c 0.008,0.023 0.027,0.041 0.053,0.044 0.023,0.004 0.049,-0.007 0.063,-0.027 l 0.503,-0.726 0.884,0.003 c 0.011,0 0.021,-0.002 0.03,-0.007 C 8.162,17.352 8.171,17.342 8.178,17.33 8.189,17.308 8.186,17.281 8.171,17.262 L 7.636,16.559 7.912,15.719 C 7.92,15.696 7.913,15.67 7.895,15.653 7.877,15.636 7.851,15.63 7.829,15.638 L 6.994,15.93 6.28,15.406 C 6.241,15.378 6.176,15.411 6.177,15.46 l 0.02,0.884 -0.717,0.516 c -0.021,0.014 -0.03,0.039 -0.026,0.063 0.004,0.024 0.021,0.045 0.045,0.052 z"
           id="path823" />
        <path
           inkscape:connector-curvature="0"
           d="m 34.415,25.564 -0.217,-0.856 c -0.013,-0.047 -0.084,-0.063 -0.114,-0.024 l -0.548,0.694 -0.881,-0.058 c -0.025,-0.002 -0.049,0.011 -0.061,0.032 -0.013,0.021 -0.012,0.047 0.002,0.068 l 0.49,0.735 -0.327,0.821 c -0.01,0.022 -0.005,0.049 0.013,0.067 0.016,0.019 0.041,0.025 0.065,0.019 l 0.851,-0.239 0.68,0.565 c 0.008,0.007 0.018,0.011 0.027,0.014 0.014,0.003 0.027,10e-4 0.04,-0.005 0.022,-0.01 0.037,-0.031 0.038,-0.057 l 0.035,-0.883 0.748,-0.472 c 0.021,-0.013 0.032,-0.037 0.029,-0.062 -0.002,-0.024 -0.019,-0.045 -0.041,-0.054 z"
           id="path825" />
        <path
           inkscape:connector-curvature="0"
           d="m 37.589,25.083 c 0.014,0.003 0.027,0.002 0.04,-0.004 0.022,-0.01 0.037,-0.032 0.038,-0.057 l 0.035,-0.883 0.748,-0.472 c 0.021,-0.013 0.032,-0.037 0.029,-0.062 -0.002,-0.024 -0.019,-0.046 -0.041,-0.054 l -0.83,-0.306 -0.217,-0.856 c -0.013,-0.048 -0.084,-0.063 -0.114,-0.024 l -0.548,0.694 -0.881,-0.058 c -0.025,-0.002 -0.049,0.011 -0.061,0.032 -0.013,0.021 -0.012,0.047 0.002,0.068 l 0.49,0.735 -0.327,0.821 c -0.009,0.023 -0.005,0.049 0.013,0.067 0.016,0.019 0.042,0.026 0.065,0.019 l 0.851,-0.239 0.68,0.564 c 0.008,0.009 0.018,0.013 0.028,0.015 z"
           id="path827" />
        <path
           inkscape:connector-curvature="0"
           d="M 38.722,27.343 38.2,27.151 38.063,26.611 C 38.055,26.582 38.01,26.572 37.992,26.596 l -0.346,0.437 -0.555,-0.036 c -0.016,-0.001 -0.03,0.007 -0.039,0.02 -0.007,0.013 -0.007,0.03 0.002,0.043 l 0.309,0.463 -0.206,0.517 c -0.006,0.015 -0.003,0.031 0.008,0.042 0.011,0.012 0.026,0.016 0.041,0.012 l 0.536,-0.151 0.428,0.356 c 0.006,0.004 0.012,0.007 0.018,0.008 0.009,0.002 0.018,0.001 0.025,-0.002 0.014,-0.006 0.023,-0.02 0.024,-0.036 l 0.022,-0.556 0.471,-0.297 c 0.013,-0.009 0.021,-0.023 0.018,-0.039 -0.002,-0.015 -0.012,-0.028 -0.026,-0.034 z"
           id="path829" />
        <path
           inkscape:connector-curvature="0"
           d="m 3.194,19.395 c 0.013,0 0.023,-0.003 0.034,-0.008 0.013,-0.007 0.024,-0.018 0.03,-0.031 0.013,-0.024 0.01,-0.054 -0.007,-0.075 L 2.66,18.504 2.965,17.577 C 2.974,17.551 2.967,17.522 2.946,17.504 2.927,17.484 2.898,17.478 2.873,17.487 L 1.951,17.809 1.164,17.232 C 1.121,17.2 1.05,17.236 1.052,17.291 l 0.021,0.977 -0.792,0.571 c -0.022,0.016 -0.033,0.043 -0.029,0.07 0.005,0.026 0.024,0.049 0.05,0.057 l 0.936,0.281 0.299,0.929 c 0.008,0.026 0.03,0.045 0.058,0.049 0.026,0.005 0.054,-0.008 0.069,-0.03 L 2.22,19.393 Z"
           id="path831" />
        <path
           inkscape:connector-curvature="0"
           d="m 2.567,13.983 0.231,0.72 c 0.007,0.02 0.024,0.035 0.045,0.037 0.021,0.004 0.042,-0.005 0.054,-0.022 l 0.431,-0.622 0.756,0.002 c 0.009,0 0.018,-0.002 0.025,-0.006 C 4.12,14.087 4.128,14.078 4.133,14.068 4.142,14.049 4.14,14.026 4.127,14.009 L 3.67,13.408 3.906,12.69 C 3.913,12.669 3.907,12.648 3.892,12.633 3.877,12.618 3.854,12.613 3.834,12.619 l -0.713,0.25 -0.61,-0.446 C 2.477,12.399 2.422,12.427 2.423,12.469 L 2.44,13.225 1.827,13.667 C 1.81,13.679 1.802,13.7 1.805,13.721 c 0.004,0.021 0.019,0.038 0.039,0.044 z"
           id="path833" />
        <path
           inkscape:connector-curvature="0"
           d="m 21.39,27.368 c 4.604,-1.233 8.801,-2.912 11.82,-4.726 3.321,-1.995 4.84,-3.937 4.391,-5.613 -0.469,-1.747 -2.913,-2.67 -7.069,-2.67 -0.35,0 -0.714,0.011 -1.081,0.024 0.362,0.467 0.691,0.96 0.983,1.478 0.032,0 0.066,-0.002 0.098,-0.002 3.84,0 5.428,0.839 5.62,1.559 0.182,0.679 -0.682,2.117 -3.714,3.939 -2.903,1.745 -6.964,3.365 -11.436,4.563 -4.259,1.141 -8.433,1.77 -11.751,1.77 -3.84,0 -5.427,-0.839 -5.619,-1.558 -0.182,-0.679 0.682,-2.118 3.714,-3.939 0.146,-0.087 0.308,-0.173 0.459,-0.261 -0.003,-0.052 -0.01,-0.1 -0.01,-0.157 0,-0.549 0.04,-1.088 0.111,-1.617 -0.464,0.247 -0.913,0.496 -1.333,0.749 -3.321,1.995 -4.84,3.937 -4.391,5.613 0.469,1.747 2.912,2.67 7.068,2.67 3.447,-0.001 7.758,-0.648 12.14,-1.822 z"
           id="path835" />
        <path
           inkscape:connector-curvature="0"
           d="m 20.73,24.905 c 3.892,-1.043 7.452,-2.408 10.179,-3.888 -0.39,-5.747 -5.172,-10.289 -11.018,-10.289 -6.101,0 -11.047,4.945 -11.047,11.046 0,1.74 0.404,3.385 1.12,4.849 3.108,-0.081 6.891,-0.68 10.766,-1.718 z"
           id="path837" />
        <path
           inkscape:connector-curvature="0"
           d="m 12.595,30.063 c 1.945,1.715 4.499,2.757 7.297,2.757 4.865,0 8.993,-3.147 10.467,-7.516 -2.558,1.17 -5.531,2.23 -8.696,3.078 -3.15,0.844 -6.264,1.414 -9.068,1.681 z"
           id="path839" />
      </g>
      <rect
         y="66.429222"
         x="14.847828"
         height="29.132708"
         width="29.132708"
         id="rect864"
         style="fill:#ff6600;fill-opacity:0;stroke:#ffffff;stroke-width:1;stroke-miterlimit:4;stroke-dasharray:none;stroke-opacity:0" />
    </g>
  </g>
</svg>
